<svg xmlns="http://www.w3.org/2000/svg" xmlns:xlink="http://www.w3.org/1999/xlink" width="1920" zoomAndPan="magnify" viewBox="0 0 1440 809.999993" height="1080" preserveAspectRatio="xMidYMid meet" version="1.0"><defs><clipPath id="aa7e55f400"><path d="M 757 632 L 1318 632 L 1318 810 L 757 810 Z M 757 632 " clip-rule="nonzero"/></clipPath><clipPath id="6b542022b9"><path d="M 802.65625 576.96875 L 1351.082031 753.050781 L 1257.996094 1042.976562 L 709.570312 866.890625 Z M 802.65625 576.96875 " clip-rule="nonzero"/></clipPath><clipPath id="e3e03f593f"><path d="M 802.65625 576.96875 L 1351.082031 753.050781 L 1257.996094 1042.976562 L 709.570312 866.890625 Z M 802.65625 576.96875 " clip-rule="nonzero"/></clipPath><clipPath id="1425fb6d07"><path d="M 921 0 L 1344 0 L 1344 252.621094 L 921 252.621094 Z M 921 0 " clip-rule="nonzero"/></clipPath><clipPath id="05dd329390"><path d="M 0 386 L 160 386 L 160 706.71875 L 0 706.71875 Z M 0 386 " clip-rule="nonzero"/></clipPath><clipPath id="e6e3d332d3"><path d="M 725 0 L 1179.75 0 L 1179.75 209.925781 L 725 209.925781 Z M 725 0 " clip-rule="nonzero"/></clipPath><clipPath id="f8653925f5"><path d="M 436 597 L 887 597 L 887 810 L 436 810 Z M 436 597 " clip-rule="nonzero"/></clipPath><clipPath id="75624885b9"><path d="M 510.917969 1108.859375 L 382.476562 701.109375 L 813.832031 565.234375 L 942.273438 972.984375 Z M 510.917969 1108.859375 " clip-rule="nonzero"/></clipPath><clipPath id="9089e94e6a"><path d="M 510.917969 1108.859375 L 382.476562 701.109375 L 813.832031 565.234375 L 942.273438 972.984375 Z M 510.917969 1108.859375 " clip-rule="nonzero"/></clipPath><clipPath id="67c402e418"><path d="M 549 671 L 627 671 L 627 784 L 549 784 Z M 549 671 " clip-rule="nonzero"/></clipPath><clipPath id="c3f005fb92"><path d="M 510.917969 1108.859375 L 382.476562 701.109375 L 813.832031 565.234375 L 942.273438 972.984375 Z M 510.917969 1108.859375 " clip-rule="nonzero"/></clipPath><clipPath id="fea782069a"><path d="M 510.917969 1108.859375 L 382.476562 701.109375 L 813.832031 565.234375 L 942.273438 972.984375 Z M 510.917969 1108.859375 " clip-rule="nonzero"/></clipPath><clipPath id="c97ca42ff6"><path d="M 0 0 L 388 0 L 388 183 L 0 183 Z M 0 0 " clip-rule="nonzero"/></clipPath><clipPath id="46fdac2d9e"><path d="M 433.230469 -163.46875 L 346.90625 255.222656 L -96.027344 163.898438 L -9.703125 -254.792969 Z M 433.230469 -163.46875 " clip-rule="nonzero"/></clipPath><clipPath id="1c780068b1"><path d="M 433.230469 -163.46875 L 346.90625 255.222656 L -96.027344 163.898438 L -9.703125 -254.792969 Z M 433.230469 -163.46875 " clip-rule="nonzero"/></clipPath><clipPath id="37c374c7bd"><path d="M 126 86 L 235 86 L 235 174 L 126 174 Z M 126 86 " clip-rule="nonzero"/></clipPath><clipPath id="348e92ecb1"><path d="M 433.230469 -163.46875 L 346.90625 255.222656 L -96.027344 163.898438 L -9.703125 -254.792969 Z M 433.230469 -163.46875 " clip-rule="nonzero"/></clipPath><clipPath id="ced83d6925"><path d="M 433.230469 -163.46875 L 346.90625 255.222656 L -96.027344 163.898438 L -9.703125 -254.792969 Z M 433.230469 -163.46875 " clip-rule="nonzero"/></clipPath></defs><rect x="-144" width="1728" fill="#ffffff" y="-80.999999" height="971.999992" fill-opacity="1"/><rect x="-144" width="1728" fill="#ffffff" y="-80.999999" height="971.999992" fill-opacity="1"/><rect x="-144" width="1728" fill="#4286f5" y="-80.999999" height="971.999992" fill-opacity="1"/><path fill="#6bb4df" d="M 275.882812 299.890625 C 248.445312 299.890625 227.609375 277.148438 207.332031 255.015625 C 194.398438 240.898438 182.179688 227.5625 168.46875 219.925781 C 145.882812 207.492188 115.308594 208.808594 85.742188 210.078125 C 63.535156 211.035156 40.566406 212.023438 21.71875 206.945312 C 0.386719 201.203125 -13.457031 188.148438 -20.59375 167.042969 C -25.980469 151.121094 -23.019531 131.628906 -12.027344 110.6875 C -2.378906 92.300781 13.183594 73.355469 31.792969 57.332031 C 49.953125 41.695312 68.992188 30.5 85.402344 25.796875 C 141.707031 2.820312 182.964844 31.460938 222.863281 59.160156 C 263.242188 87.191406 301.386719 113.667969 353.585938 89.46875 C 390.78125 67.253906 425.671875 54.726562 457.285156 52.234375 C 491.03125 49.578125 512.089844 59.035156 523.816406 67.4375 C 541.5 80.113281 550.019531 99.453125 546.054688 117.917969 C 543.820312 128.320312 537.761719 137.878906 528.546875 145.558594 C 518.398438 154.007812 504.878906 159.980469 488.367188 163.304688 C 472.941406 166.410156 455.691406 165.761719 439.011719 165.140625 C 407.191406 163.953125 374.285156 162.722656 351.84375 187.132812 C 340.183594 200.417969 335.335938 219.214844 330.648438 237.390625 C 324.242188 262.234375 318.191406 285.699219 296.074219 295.945312 L 295.976562 295.984375 C 288.878906 298.6875 282.207031 299.890625 275.882812 299.890625 Z M 113.019531 206.3125 C 133.75 206.3125 153.683594 208.386719 169.914062 217.320312 C 184.050781 225.195312 197.003906 239.332031 209.53125 253.003906 C 233.796875 279.488281 258.886719 306.878906 294.867188 293.214844 C 315.664062 283.554688 321.539062 260.765625 327.761719 236.644531 C 332.539062 218.132812 337.472656 198.984375 349.625 185.136719 C 373.027344 159.691406 406.625 160.945312 439.125 162.160156 C 455.628906 162.773438 472.703125 163.414062 487.78125 160.378906 C 518.402344 154.214844 538.585938 138.507812 543.144531 117.28125 C 546.859375 99.996094 538.789062 81.824219 522.085938 69.851562 C 508.230469 59.925781 455.246094 32.1875 355.050781 92.058594 L 354.914062 92.132812 C 330.753906 103.347656 307.160156 104.816406 282.777344 96.621094 C 261.132812 89.34375 240.8125 75.238281 221.164062 61.601562 C 181.902344 34.351562 141.300781 6.167969 86.457031 28.585938 L 86.300781 28.640625 C 52.636719 38.25 9.714844 75.675781 -9.390625 112.070312 C -19.992188 132.277344 -22.894531 150.957031 -17.777344 166.085938 C -2.613281 210.902344 40.242188 209.058594 85.617188 207.105469 C 94.734375 206.710938 103.957031 206.3125 113.019531 206.3125 Z M 113.019531 206.3125 " fill-opacity="1" fill-rule="nonzero"/><g clip-path="url(#aa7e55f400)"><g clip-path="url(#6b542022b9)"><g clip-path="url(#e3e03f593f)"><path fill="#6bb4df" d="M 999.1875 952.320312 C 973.066406 943.933594 960.175781 915.910156 947.636719 888.636719 C 939.636719 871.238281 932.082031 854.808594 921.363281 843.347656 C 903.660156 824.601562 874.144531 816.507812 845.605469 808.683594 C 824.167969 802.804688 802 796.722656 785.605469 786.128906 C 767.050781 774.136719 757.859375 757.476562 757.515625 735.195312 C 757.253906 718.390625 766.03125 700.742188 782.902344 684.160156 C 797.707031 669.605469 818.316406 656.320312 840.9375 646.753906 C 863.003906 637.417969 884.554688 632.578125 901.617188 633.117188 C 962.25 628.453125 992.777344 668.335938 1022.300781 706.902344 C 1052.175781 745.9375 1080.402344 782.808594 1137.5 775.722656 C 1179.703125 765.945312 1216.753906 764.683594 1247.617188 771.976562 C 1280.554688 779.761719 1297.71875 795.207031 1306.3125 806.789062 C 1319.277344 824.261719 1321.476562 845.28125 1312.054688 861.648438 C 1306.746094 870.871094 1298.058594 878.121094 1286.933594 882.617188 C 1274.6875 887.558594 1259.992188 889.109375 1243.253906 887.226562 C 1227.617188 885.46875 1211.390625 879.582031 1195.699219 873.886719 C 1165.769531 863.03125 1134.8125 851.800781 1105.980469 868.179688 C 1090.820312 877.265625 1080.457031 893.679688 1070.441406 909.554688 C 1056.746094 931.25 1043.808594 951.742188 1019.621094 954.734375 L 1019.515625 954.742188 C 1011.929688 955.148438 1005.207031 954.253906 999.1875 952.320312 Z M 872.726562 813.433594 C 892.464844 819.773438 910.8125 827.839844 923.53125 841.308594 C 934.585938 853.125 942.597656 870.546875 950.34375 887.394531 C 965.351562 920.027344 980.871094 953.777344 1019.304688 951.769531 C 1042.0625 948.925781 1054.617188 929.027344 1067.917969 907.960938 C 1078.125 891.792969 1088.675781 875.074219 1104.480469 865.601562 C 1134.539062 848.527344 1166.148438 859.992188 1196.71875 871.085938 C 1212.246094 876.714844 1228.308594 882.542969 1243.589844 884.261719 C 1274.632812 887.753906 1298.648438 878.972656 1309.480469 860.15625 C 1318.300781 844.835938 1316.171875 825.0625 1303.925781 808.558594 C 1293.769531 794.871094 1251.800781 752.265625 1138.101562 778.636719 L 1137.949219 778.667969 C 1111.515625 781.960938 1088.601562 776.144531 1067.894531 760.890625 C 1049.507812 747.34375 1034.472656 727.703125 1019.933594 708.710938 C 990.882812 670.761719 960.839844 631.515625 901.769531 636.09375 L 901.605469 636.097656 C 866.613281 634.957031 814.304688 657.472656 784.988281 686.285156 C 768.71875 702.28125 760.242188 719.179688 760.492188 735.148438 C 761.230469 782.453125 802.59375 793.800781 846.394531 805.8125 C 855.199219 808.226562 864.097656 810.664062 872.726562 813.433594 Z M 872.726562 813.433594 " fill-opacity="1" fill-rule="nonzero"/></g></g></g><g clip-path="url(#1425fb6d07)"><path fill="#6bb4df" d="M 1151.050781 252.484375 L 1150.917969 252.476562 C 1127.828125 251.277344 1112.257812 232.851562 1097.199219 215.03125 C 1084.742188 200.289062 1071.863281 185.046875 1054.578125 178.773438 C 1037.707031 172.652344 1019.160156 175.992188 1001.226562 179.222656 C 996.925781 179.996094 992.484375 180.796875 988.148438 181.449219 C 955.226562 190.09375 932.59375 175.054688 924.765625 156.304688 C 916.902344 137.476562 922.175781 110.683594 951.683594 93.257812 L 951.820312 93.191406 C 1002.5 71.808594 1054.910156 49.699219 1080.753906 -5.484375 L 1080.78125 -5.539062 C 1091.996094 -26.355469 1103.59375 -47.878906 1119.195312 -59.175781 C 1135.894531 -71.265625 1155.882812 -71.011719 1182.089844 -58.378906 C 1199.644531 -52.71875 1218.113281 -48.242188 1235.976562 -43.914062 C 1266.3125 -36.5625 1297.683594 -28.964844 1325.902344 -15.277344 L 1326.015625 -15.214844 C 1334.945312 -9.507812 1340.097656 -2.894531 1341.773438 5.007812 C 1345.0625 20.53125 1333.785156 37.578125 1323.835938 52.617188 C 1322.535156 54.589844 1321.300781 56.453125 1320.101562 58.308594 C 1314.238281 74.957031 1321.972656 102.988281 1330.160156 132.664062 C 1340.480469 170.082031 1351.15625 208.769531 1334.671875 227.820312 C 1325.855469 238.015625 1310.355469 241.5625 1287.300781 238.675781 C 1232.09375 231.765625 1218.679688 235.511719 1194.324219 242.304688 C 1183.785156 245.246094 1170.667969 248.90625 1151.175781 252.460938 Z M 1033.28125 173.078125 C 1040.78125 173.078125 1048.1875 174.039062 1055.355469 176.640625 C 1073.210938 183.121094 1086.289062 198.597656 1098.9375 213.566406 C 1114.332031 231.78125 1128.875 248.988281 1150.90625 250.199219 C 1170.21875 246.671875 1183.246094 243.039062 1193.714844 240.117188 C 1218.355469 233.242188 1231.925781 229.453125 1287.582031 236.421875 C 1309.832031 239.207031 1324.675781 235.90625 1332.953125 226.332031 C 1348.640625 208.203125 1338.128906 170.105469 1327.96875 133.269531 C 1319.664062 103.164062 1311.820312 74.730469 1318.007812 57.417969 L 1318.050781 57.296875 L 1318.121094 57.183594 C 1319.351562 55.28125 1320.609375 53.378906 1321.945312 51.363281 C 1331.648438 36.695312 1342.644531 20.070312 1339.550781 5.476562 C 1338.015625 -1.78125 1333.207031 -7.910156 1324.851562 -13.265625 C 1296.867188 -26.824219 1265.640625 -34.390625 1235.441406 -41.707031 C 1217.511719 -46.050781 1198.972656 -50.542969 1181.320312 -56.242188 L 1181.171875 -56.296875 C 1155.765625 -68.566406 1136.496094 -68.894531 1120.53125 -57.335938 C 1105.355469 -46.351562 1093.886719 -25.074219 1082.796875 -4.488281 C 1056.589844 51.433594 1003.816406 73.722656 952.773438 95.253906 C 924.503906 111.984375 919.390625 137.527344 926.863281 155.429688 C 934.316406 173.28125 956 187.566406 987.632812 179.234375 L 987.753906 179.210938 C 992.074219 178.558594 996.519531 177.761719 1000.824219 176.984375 C 1011.5625 175.050781 1022.523438 173.078125 1033.28125 173.078125 Z M 1033.28125 173.078125 " fill-opacity="1" fill-rule="nonzero"/></g><g clip-path="url(#05dd329390)"><path fill="#6bb4df" d="M -32.722656 706.582031 L -32.855469 706.574219 C -55.945312 705.378906 -71.515625 686.949219 -86.574219 669.132812 C -99.03125 654.390625 -111.910156 639.148438 -129.195312 632.875 C -146.066406 626.75 -164.613281 630.089844 -182.550781 633.320312 C -186.847656 634.09375 -191.289062 634.894531 -195.625 635.550781 C -228.546875 644.191406 -251.179688 629.152344 -259.007812 610.402344 C -266.871094 591.578125 -261.597656 564.78125 -232.089844 547.359375 L -231.953125 547.289062 C -181.273438 525.90625 -128.863281 503.796875 -103.023438 448.617188 L -102.996094 448.558594 C -91.78125 427.746094 -80.183594 406.21875 -64.578125 394.921875 C -47.878906 382.832031 -27.890625 383.085938 -1.683594 395.722656 C 15.867188 401.382812 34.339844 405.855469 52.203125 410.1875 C 82.539062 417.535156 113.90625 425.136719 142.125 438.820312 L 142.242188 438.886719 C 151.171875 444.59375 156.324219 451.207031 158 459.109375 C 161.289062 474.632812 150.011719 491.675781 140.0625 506.71875 C 138.761719 508.6875 137.527344 510.550781 136.328125 512.40625 C 130.464844 529.058594 138.199219 557.089844 146.386719 586.765625 C 156.707031 624.179688 167.382812 662.871094 150.898438 681.921875 C 142.082031 692.113281 126.582031 695.664062 103.523438 692.777344 C 48.316406 685.863281 34.90625 689.609375 10.550781 696.40625 C 0.0117188 699.347656 -13.105469 703.007812 -32.597656 706.5625 Z M -150.496094 627.175781 C -142.992188 627.175781 -135.589844 628.136719 -128.421875 630.738281 C -110.5625 637.21875 -97.484375 652.695312 -84.835938 667.664062 C -69.445312 685.882812 -54.898438 703.089844 -32.871094 704.300781 C -13.554688 700.773438 -0.527344 697.136719 9.941406 694.214844 C 34.582031 687.339844 48.152344 683.550781 103.808594 690.519531 C 126.058594 693.304688 140.898438 690.007812 149.179688 680.429688 C 164.863281 662.300781 154.355469 624.207031 144.195312 587.367188 C 135.890625 557.261719 128.046875 528.832031 134.230469 511.519531 L 134.277344 511.394531 L 134.347656 511.285156 C 135.578125 509.378906 136.835938 507.476562 138.171875 505.460938 C 147.875 490.792969 158.871094 474.167969 155.777344 459.578125 C 154.242188 452.320312 149.429688 446.1875 141.078125 440.835938 C 113.09375 427.277344 81.867188 419.707031 51.667969 412.394531 C 33.738281 408.050781 15.199219 403.558594 -2.457031 397.859375 L -2.601562 397.800781 C -28.007812 385.535156 -47.277344 385.203125 -63.246094 396.761719 C -78.421875 407.75 -89.886719 429.027344 -100.976562 449.609375 C -127.183594 505.535156 -179.957031 527.820312 -231 549.355469 C -259.269531 566.082031 -264.386719 591.625 -256.910156 609.527344 C -249.457031 627.378906 -227.773438 641.664062 -196.144531 633.335938 L -196.023438 633.308594 C -191.699219 632.660156 -187.253906 631.859375 -182.949219 631.085938 C -172.210938 629.152344 -161.25 627.175781 -150.496094 627.175781 Z M -150.496094 627.175781 " fill-opacity="1" fill-rule="nonzero"/></g><g clip-path="url(#e6e3d332d3)"><path fill="#619bf8" d="M 816.949219 -97.207031 C 794.085938 -87.449219 776.363281 -60.875 785.3125 -37.691406 C 792.390625 -19.351562 813.546875 -8.175781 817.367188 11.105469 C 821.167969 30.320312 805.753906 48.144531 789.125 58.507812 C 772.496094 68.871094 753.089844 75.746094 740.128906 90.441406 C 720.066406 113.1875 722.207031 150.335938 740.726562 174.347656 C 759.25 198.359375 790.726562 209.941406 821.0625 209.851562 C 860.519531 209.738281 897.585938 192.269531 933.132812 175.171875 C 993.355469 146.210938 1053.566406 117.238281 1113.789062 88.273438 C 1144.414062 73.546875 1179.675781 51.804688 1179.390625 17.832031 C 1179.089844 -18.289062 1139.261719 -39.105469 1105.4375 -51.835938 C 1061.882812 -68.226562 1018.324219 -84.621094 974.761719 -101.011719 C 944.886719 -112.257812 924.226562 -114.074219 893.917969 -107.984375 C 869.582031 -103.101562 841.019531 -107.472656 816.949219 -97.207031 Z M 816.949219 -97.207031 " fill-opacity="1" fill-rule="nonzero"/></g><path fill="#619bf8" d="M 1616.90625 605.652344 C 1610.007812 583.773438 1592.820312 566.5 1573.714844 553.8125 C 1554.613281 541.125 1533.289062 532.234375 1513.148438 521.269531 C 1483.492188 505.128906 1453.089844 477.074219 1458.652344 443.757812 C 1465.460938 402.992188 1522.234375 382.503906 1523.214844 341.179688 C 1523.644531 323.171875 1512.175781 306.359375 1497.070312 296.554688 C 1481.96875 286.75 1463.710938 283.007812 1445.765625 281.550781 C 1390.109375 277.03125 1330.367188 293.578125 1286.289062 328.382812 C 1249.214844 357.648438 1201 379.382812 1198.386719 433.726562 C 1196.449219 474.042969 1223.855469 514.007812 1262.152344 526.703125 C 1283.074219 533.632812 1308.265625 534.25 1322.292969 551.265625 C 1335.644531 567.457031 1332.527344 591.464844 1325.996094 611.414062 C 1319.464844 631.363281 1310.09375 651.652344 1313.25 672.402344 C 1317.628906 701.191406 1346.113281 721.644531 1374.964844 725.472656 C 1403.820312 729.289062 1432.730469 719.957031 1459.660156 708.890625 C 1486.585938 697.832031 1513.199219 684.777344 1542.003906 680.609375 C 1561.585938 677.773438 1582.949219 678.722656 1599.214844 667.445312 C 1618.0625 654.375 1623.804688 627.53125 1616.90625 605.652344 Z M 1616.90625 605.652344 " fill-opacity="1" fill-rule="nonzero"/><path fill="#619bf8" d="M 1252.25 573.160156 L 1236.703125 599.441406 C 1233.238281 609.324219 1234.273438 621.539062 1241.980469 628.621094 C 1253.84375 639.519531 1274.625 631.8125 1282.628906 617.828125 C 1290.636719 603.847656 1295.773438 584.914062 1288.375 570.601562 C 1282.253906 558.761719 1261.207031 563.28125 1252.25 573.160156 Z M 1252.25 573.160156 " fill-opacity="1" fill-rule="nonzero"/><g clip-path="url(#f8653925f5)"><g clip-path="url(#75624885b9)"><g clip-path="url(#9089e94e6a)"><path fill="#619bf8" d="M 698.011719 609.042969 C 679.21875 622.199219 667.90625 643.78125 661.542969 665.8125 C 655.179688 687.847656 653.105469 710.855469 648.699219 733.359375 C 642.214844 766.496094 624.589844 803.921875 591.140625 808.625 C 550.214844 814.382812 513.617188 766.386719 473.90625 777.863281 C 456.601562 782.867188 444.011719 798.855469 439.199219 816.207031 C 434.382812 833.558594 436.300781 852.097656 440.300781 869.652344 C 452.710938 924.09375 486.441406 976.105469 532.882812 1007.6875 C 571.9375 1034.257812 607.152344 1073.714844 659.769531 1059.878906 C 698.804688 1049.617188 728.691406 1011.46875 729.292969 971.128906 C 729.621094 949.089844 722.640625 924.875 734.652344 906.386719 C 746.082031 888.785156 769.917969 884.546875 790.90625 884.78125 C 811.898438 885.019531 834.066406 887.859375 852.90625 878.613281 C 879.050781 865.789062 890.003906 832.476562 884.984375 803.808594 C 879.957031 775.136719 862.367188 750.367188 843.726562 728.007812 C 825.085938 705.648438 804.640625 684.1875 792.007812 657.964844 C 783.417969 640.140625 777.90625 619.476562 762.265625 607.351562 C 744.136719 593.300781 716.808594 595.890625 698.011719 609.042969 Z M 698.011719 609.042969 " fill-opacity="1" fill-rule="nonzero"/></g></g></g><g clip-path="url(#67c402e418)"><g clip-path="url(#c3f005fb92)"><g clip-path="url(#fea782069a)"><path fill="#619bf8" d="M 554.386719 778.125 C 564.945312 788.769531 590.769531 780.195312 600.367188 772.617188 C 618.933594 757.949219 623.066406 731.925781 625.851562 708.433594 C 627.410156 695.273438 627.074219 678.511719 614.988281 673.066406 C 607.742188 669.804688 598.917969 672.566406 592.90625 677.769531 C 586.898438 682.96875 583.105469 690.207031 579.453125 697.265625 C 572.824219 710.054688 566.203125 722.84375 559.570312 735.640625 C 553.699219 746.980469 543.453125 767.101562 554.386719 778.125 Z M 554.386719 778.125 " fill-opacity="1" fill-rule="nonzero"/></g></g></g><g clip-path="url(#c97ca42ff6)"><g clip-path="url(#46fdac2d9e)"><g clip-path="url(#1c780068b1)"><path fill="#619bf8" d="M 26.46875 182.023438 C 49.289062 179.683594 69.679688 166.335938 85.964844 150.191406 C 102.246094 134.042969 115.261719 114.953125 130.066406 97.441406 C 151.863281 71.65625 185.480469 47.546875 216.984375 59.722656 C 255.539062 74.621094 264.140625 134.359375 304.410156 143.667969 C 321.964844 147.722656 340.746094 139.886719 353.394531 127.074219 C 366.050781 114.261719 373.402344 97.132812 378.453125 79.855469 C 394.121094 26.257812 389.976562 -35.597656 364.789062 -85.792969 C 343.613281 -128.015625 332.0625 -179.625 279.363281 -193.15625 C 240.269531 -203.195312 195.59375 -184.425781 175.429688 -149.480469 C 164.414062 -130.390625 158.722656 -105.839844 139.226562 -95.539062 C 120.675781 -85.734375 97.789062 -93.632812 79.570312 -104.054688 C 61.351562 -114.484375 43.375 -127.757812 22.414062 -128.855469 C -6.667969 -130.382812 -32.453125 -106.613281 -42.023438 -79.132812 C -51.59375 -51.640625 -48.289062 -21.441406 -42.890625 7.167969 C -37.496094 35.773438 -30.082031 64.472656 -31.816406 93.527344 C -32.992188 113.277344 -38.238281 134.011719 -30.480469 152.21875 C -21.484375 173.316406 3.648438 184.359375 26.46875 182.023438 Z M 26.46875 182.023438 " fill-opacity="1" fill-rule="nonzero"/></g></g></g><g clip-path="url(#37c374c7bd)"><g clip-path="url(#348e92ecb1)"><g clip-path="url(#ced83d6925)"><path fill="#619bf8" d="M 234.242188 104.257812 C 230.199219 89.820312 203.472656 84.734375 191.398438 86.683594 C 168.039062 90.457031 151.757812 111.171875 137.890625 130.339844 C 130.117188 141.074219 122.253906 155.878906 130.160156 166.519531 C 134.898438 172.898438 143.953125 174.78125 151.734375 173.164062 C 159.515625 171.542969 166.355469 167.070312 172.980469 162.683594 C 184.996094 154.738281 197.007812 146.792969 209.027344 138.84375 C 219.679688 131.796875 238.425781 119.207031 234.242188 104.257812 Z M 234.242188 104.257812 " fill-opacity="1" fill-rule="nonzero"/></g></g></g><path fill="#619bf8" d="M -45.730469 685.765625 C -43.132812 659.492188 -35.613281 629.460938 -11.664062 618.359375 C 7.878906 609.304688 32.070312 617.242188 47.417969 632.351562 C 62.765625 647.460938 70.914062 668.328125 77.117188 688.953125 C 86.515625 663.289062 113.761719 645.347656 141.050781 646.855469 C 168.34375 648.367188 193.441406 669.207031 199.953125 695.75 C 208.5 679.664062 217.535156 663.476562 230.609375 650.796875 C 243.683594 638.117188 261.558594 629.226562 279.691406 630.941406 C 307.632812 633.589844 327.308594 659.394531 339.6875 684.578125 C 363.472656 732.957031 373.855469 787.835938 369.386719 841.558594 C 368.804688 848.558594 170.699219 842.835938 152.199219 842.1875 C 114.535156 840.863281 76.902344 838.789062 39.324219 835.972656 C 20.90625 834.59375 2.484375 833.089844 -15.898438 831.292969 C -37.871094 829.144531 -39.789062 828.957031 -43.105469 807.007812 C -49.144531 767.039062 -49.703125 725.953125 -45.730469 685.765625 Z M -45.730469 685.765625 " fill-opacity="1" fill-rule="nonzero"/></svg>