<svg xmlns="http://www.w3.org/2000/svg" xmlns:xlink="http://www.w3.org/1999/xlink" width="500" zoomAndPan="magnify" viewBox="0 0 375 374.999991" height="500" preserveAspectRatio="xMidYMid meet" version="1.0"><defs><clipPath id="e9900846d8"><path d="M 14 13.855469 L 271 13.855469 L 271 361.105469 L 14 361.105469 Z M 14 13.855469 " clip-rule="nonzero"/></clipPath></defs><path fill="#6982df" d="M 89.292969 171.117188 C 87.296875 169.519531 84.105469 169.917969 82.109375 171.914062 L 65.34375 192.671875 L 60.15625 187.878906 C 58.160156 185.886719 54.96875 185.886719 52.972656 187.878906 C 50.976562 189.875 50.976562 193.070312 52.972656 195.066406 C 52.972656 195.066406 62.550781 203.847656 62.550781 203.847656 C 64.945312 205.84375 68.539062 205.042969 69.734375 203.445312 L 89.691406 178.300781 C 91.6875 175.90625 92.488281 173.511719 89.292969 171.117188 Z M 89.292969 171.117188 " fill-opacity="1" fill-rule="nonzero"/><g clip-path="url(#e9900846d8)"><path fill="#6982df" d="M 265.710938 219.011719 C 262.917969 219.011719 260.921875 221.40625 260.921875 223.804688 L 260.921875 351.128906 L 24.234375 351.128906 L 24.234375 23.835938 L 189.078125 23.835938 L 189.078125 90.09375 C 189.078125 92.886719 191.074219 95.28125 193.867188 95.28125 L 260.125 95.28125 L 260.125 101.667969 C 260.125 104.460938 262.519531 106.457031 264.914062 106.457031 C 267.308594 106.457031 269.703125 104.0625 269.703125 101.667969 L 269.703125 90.09375 C 269.703125 88.894531 269.304688 87.695312 268.105469 86.5 L 197.859375 15.453125 C 197.0625 14.253906 195.464844 13.855469 194.265625 13.855469 L 19.445312 13.855469 C 16.652344 13.855469 14.65625 16.25 14.65625 18.644531 L 14.65625 356.316406 C 14.65625 359.109375 17.050781 361.105469 19.445312 361.105469 L 265.710938 361.105469 C 268.507812 361.105469 270.503906 358.710938 270.503906 356.316406 L 270.503906 223.804688 C 270.503906 221.007812 268.507812 219.011719 265.710938 219.011719 Z M 265.710938 219.011719 " fill-opacity="1" fill-rule="nonzero"/></g><path fill="#6982df" d="M 235.378906 117.234375 C 235.378906 114.4375 232.984375 112.445312 230.589844 112.445312 L 111.644531 112.445312 C 108.851562 112.445312 106.855469 114.839844 106.855469 117.234375 C 106.855469 119.628906 109.25 122.023438 111.644531 122.023438 L 230.589844 122.023438 C 233.382812 122.421875 235.378906 120.027344 235.378906 117.234375 Z M 235.378906 117.234375 " fill-opacity="1" fill-rule="nonzero"/><path fill="#6982df" d="M 111.644531 137.988281 C 108.851562 137.988281 106.855469 140.382812 106.855469 142.777344 C 106.855469 145.171875 109.25 147.566406 111.644531 147.566406 L 197.0625 147.566406 C 199.855469 147.566406 201.851562 145.171875 201.851562 142.777344 C 201.851562 140.382812 199.855469 137.988281 197.0625 137.988281 Z M 111.644531 137.988281 " fill-opacity="1" fill-rule="nonzero"/><path fill="#6982df" d="M 89.292969 105.257812 C 87.296875 103.664062 84.105469 104.0625 82.109375 106.058594 L 65.34375 126.8125 L 60.15625 122.023438 C 58.160156 120.027344 54.96875 120.027344 52.972656 122.023438 C 50.976562 124.019531 50.976562 127.210938 52.972656 129.207031 C 52.972656 129.207031 62.550781 137.988281 62.550781 137.988281 C 64.945312 139.984375 68.539062 139.1875 69.734375 137.589844 L 89.691406 112.445312 C 91.6875 110.046875 92.085938 107.652344 89.292969 105.257812 Z M 89.292969 105.257812 " fill-opacity="1" fill-rule="nonzero"/><path fill="#6982df" d="M 89.292969 234.578125 C 87.296875 232.984375 84.105469 233.382812 82.109375 235.378906 L 65.34375 256.132812 L 60.15625 251.34375 C 58.160156 249.347656 54.96875 249.347656 52.972656 251.34375 C 50.976562 253.339844 50.976562 256.53125 52.972656 258.527344 C 52.972656 258.527344 62.550781 267.308594 62.550781 267.308594 C 64.945312 269.304688 68.539062 268.507812 69.734375 266.910156 L 89.691406 241.765625 C 91.6875 239.769531 92.085938 236.972656 89.292969 234.578125 Z M 89.292969 234.578125 " fill-opacity="1" fill-rule="nonzero"/><path fill="#6982df" d="M 357.515625 104.460938 L 343.144531 93.285156 L 352.722656 80.910156 C 354.71875 78.515625 356.714844 74.527344 352.324219 70.933594 L 331.570312 54.570312 C 328.378906 51.773438 323.1875 51.773438 320.394531 55.367188 L 310.816406 67.738281 C 310.015625 67.339844 308.820312 66.941406 308.019531 67.339844 C 306.824219 67.339844 305.625 68.140625 304.828125 69.335938 L 288.0625 90.890625 C 286.867188 92.886719 286.867188 95.28125 288.0625 96.878906 L 225 177.105469 L 111.644531 177.105469 C 108.851562 177.105469 106.855469 179.5 106.855469 181.894531 C 106.855469 184.289062 109.25 186.683594 111.644531 186.683594 L 217.019531 186.683594 L 205.042969 202.25 L 111.644531 202.25 C 108.851562 202.25 106.855469 204.644531 106.855469 207.039062 C 106.855469 209.433594 109.25 211.828125 111.644531 211.828125 L 197.460938 211.828125 L 174.710938 241.765625 L 111.644531 241.765625 C 108.851562 241.765625 106.855469 244.160156 106.855469 246.554688 C 106.855469 248.949219 109.25 251.34375 111.644531 251.34375 L 166.726562 251.34375 L 156.746094 264.117188 C 156.746094 264.117188 156.347656 265.3125 155.949219 266.910156 L 111.644531 266.910156 C 108.851562 266.910156 106.855469 269.304688 106.855469 271.699219 C 106.855469 274.09375 109.25 276.488281 111.644531 276.488281 L 152.757812 276.488281 C 148.765625 289.261719 143.578125 307.222656 143.578125 307.222656 C 142.777344 309.21875 143.578125 311.613281 145.171875 312.8125 C 146.769531 314.007812 149.164062 314.007812 150.761719 313.210938 C 150.761719 313.210938 188.679688 290.460938 189.476562 289.660156 L 319.996094 121.625 C 320.792969 122.023438 321.59375 122.421875 322.789062 122.421875 C 324.386719 122.421875 325.980469 121.625 326.78125 120.425781 L 340.351562 102.863281 L 347.535156 108.453125 L 306.824219 161.539062 C 305.226562 163.933594 305.625 166.726562 307.621094 168.722656 C 309.617188 170.71875 312.8125 169.917969 314.804688 167.921875 L 358.710938 111.644531 C 360.308594 109.25 359.511719 106.058594 357.515625 104.460938 Z M 156.746094 298.441406 L 163.933594 274.492188 C 166.726562 276.089844 169.121094 277.6875 171.515625 279.28125 C 173.910156 281.277344 176.304688 283.273438 178.300781 285.269531 Z M 321.992188 111.246094 L 298.441406 92.886719 L 308.421875 80.113281 L 331.96875 98.472656 Z M 321.992188 111.246094 " fill-opacity="1" fill-rule="nonzero"/></svg>