<svg xmlns="http://www.w3.org/2000/svg" xmlns:xlink="http://www.w3.org/1999/xlink" width="500" zoomAndPan="magnify" viewBox="0 0 375 374.999991" height="500" preserveAspectRatio="xMidYMid meet" version="1.0"><defs><clipPath id="b6d2642ddb"><path d="M 0 83 L 375 83 L 375 353.859375 L 0 353.859375 Z M 0 83 " clip-rule="nonzero"/></clipPath><clipPath id="1778d04823"><path d="M 4 20.859375 L 371 20.859375 L 371 138 L 4 138 Z M 4 20.859375 " clip-rule="nonzero"/></clipPath></defs><g clip-path="url(#b6d2642ddb)"><path fill="#6983e0" d="M 187.5 124.921875 C 106.972656 124.921875 41.691406 190.148438 41.691406 270.609375 L 0.03125 270.609375 C 0.03125 167.160156 83.960938 83.296875 187.5 83.296875 C 291.039062 83.296875 374.96875 167.160156 374.96875 270.609375 L 374.96875 301.828125 C 374.96875 330.5625 351.65625 353.859375 322.894531 353.859375 C 294.136719 353.859375 270.820312 330.5625 270.820312 301.828125 L 270.820312 270.609375 C 270.820312 224.632812 233.515625 187.359375 187.5 187.359375 C 141.484375 187.359375 104.179688 224.632812 104.179688 270.609375 L 62.519531 270.609375 C 62.519531 201.644531 118.476562 145.734375 187.5 145.734375 C 256.523438 145.734375 312.480469 201.644531 312.480469 270.609375 L 312.480469 301.828125 C 312.480469 307.574219 317.144531 312.234375 322.894531 312.234375 C 328.648438 312.234375 333.308594 307.574219 333.308594 301.828125 L 333.308594 270.609375 C 333.308594 190.148438 268.027344 124.921875 187.5 124.921875 Z M 187.5 124.921875 " fill-opacity="1" fill-rule="evenodd"/></g><path fill="#6f66fe" d="M 187.5 249.796875 C 175.996094 249.796875 166.667969 259.113281 166.667969 270.609375 L 125.007812 270.609375 C 125.007812 236.125 152.988281 208.171875 187.5 208.171875 C 222.011719 208.171875 249.988281 236.125 249.988281 270.609375 L 249.988281 343.453125 L 208.328125 343.453125 L 208.328125 270.609375 C 208.328125 259.113281 199.003906 249.796875 187.5 249.796875 Z M 187.5 249.796875 " fill-opacity="1" fill-rule="evenodd"/><g clip-path="url(#1778d04823)"><path fill="#6f66fe" d="M 187.503906 62.484375 C 126.191406 62.484375 71.753906 91.871094 37.515625 137.402344 L 4.210938 112.398438 C 45.976562 56.851562 112.539062 20.859375 187.503906 20.859375 C 262.46875 20.859375 329.03125 56.851562 370.796875 112.398438 L 337.492188 137.402344 C 303.253906 91.871094 248.816406 62.484375 187.503906 62.484375 Z M 187.503906 62.484375 " fill-opacity="1" fill-rule="evenodd"/></g></svg>