<svg xmlns="http://www.w3.org/2000/svg" xmlns:xlink="http://www.w3.org/1999/xlink" width="500" zoomAndPan="magnify" viewBox="0 0 375 374.999991" height="500" preserveAspectRatio="xMidYMid meet" version="1.0"><path fill="#f9b036" d="M 93.75 168.75 L 281.25 168.75 L 281.25 206.25 L 93.75 206.25 Z M 93.75 168.75 " fill-opacity="1" fill-rule="evenodd"/><path fill="#6f66fe" d="M 0 56.25 C 0 25.183594 25.183594 0 56.25 0 L 103.125 0 L 103.125 37.5 L 56.25 37.5 C 45.894531 37.5 37.5 45.894531 37.5 56.25 L 37.5 103.125 L 0 103.125 Z M 318.75 37.5 L 271.875 37.5 L 271.875 0 L 318.75 0 C 349.816406 0 375 25.183594 375 56.25 L 375 103.125 L 337.5 103.125 L 337.5 56.25 C 337.5 45.894531 329.105469 37.5 318.75 37.5 Z M 37.5 271.875 L 37.5 318.75 C 37.5 329.105469 45.894531 337.5 56.25 337.5 L 103.125 337.5 L 103.125 375 L 56.25 375 C 25.183594 375 0 349.816406 0 318.75 L 0 271.875 Z M 337.5 318.75 L 337.5 271.875 L 375 271.875 L 375 318.75 C 375 349.816406 349.816406 375 318.75 375 L 271.875 375 L 271.875 337.5 L 318.75 337.5 C 329.105469 337.5 337.5 329.105469 337.5 318.75 Z M 337.5 318.75 " fill-opacity="1" fill-rule="evenodd"/></svg>