<svg xmlns="http://www.w3.org/2000/svg" xmlns:xlink="http://www.w3.org/1999/xlink" width="500" zoomAndPan="magnify" viewBox="0 0 375 374.999991" height="500" preserveAspectRatio="xMidYMid meet" version="1.0"><defs><clipPath id="853f691b3b"><path d="M 56 20.554688 L 271 20.554688 L 271 117 L 56 117 Z M 56 20.554688 " clip-rule="nonzero"/></clipPath><clipPath id="578eb79446"><path d="M 20.554688 57 L 234 57 L 234 354 L 20.554688 354 Z M 20.554688 57 " clip-rule="nonzero"/></clipPath></defs><path fill="#6982df" d="M 244.265625 307.089844 L 244.265625 317.492188 L 254.671875 317.492188 C 256.753906 317.492188 258.835938 316.972656 260.65625 316.195312 L 253.109375 307.089844 Z M 244.265625 307.089844 " fill-opacity="1" fill-rule="nonzero"/><g clip-path="url(#853f691b3b)"><path fill="#6982df" d="M 67.375 36.550781 C 67.375 33.691406 69.71875 31.347656 72.578125 31.347656 L 254.671875 31.347656 C 257.535156 31.347656 259.875 33.691406 259.875 36.550781 L 259.875 106.785156 C 263.257812 109.386719 266.378906 112.25 269.5 115.371094 C 269.761719 115.632812 270.019531 115.890625 270.28125 116.152344 L 270.28125 36.550781 C 270.28125 27.964844 263.257812 20.941406 254.671875 20.941406 L 72.578125 20.941406 C 63.996094 20.941406 56.972656 27.964844 56.972656 36.550781 L 56.972656 46.957031 L 67.375 46.957031 Z M 67.375 36.550781 " fill-opacity="1" fill-rule="nonzero"/></g><path fill="#6982df" d="M 341.816406 296.164062 L 285.628906 249.339844 C 283.808594 252.199219 281.984375 255.324219 279.90625 257.921875 L 286.148438 263.125 L 262.996094 286.277344 L 257.792969 280.035156 C 254.933594 282.117188 252.070312 284.195312 249.210938 285.757812 L 296.03125 341.945312 C 301.757812 348.96875 310.339844 353.132812 319.445312 353.652344 C 326.730469 353.914062 334.273438 351.832031 340.253906 347.410156 C 348.839844 341.167969 354.304688 330.242188 353.78125 319.316406 C 353.003906 310.46875 348.839844 302.144531 341.816406 296.164062 Z M 269.5 294.34375 L 293.953125 269.890625 L 304.355469 278.472656 L 278.085938 304.746094 Z M 336.613281 337.003906 C 332.191406 341.425781 326.207031 343.765625 319.707031 343.507812 C 313.460938 343.246094 307.738281 340.386719 303.835938 335.703125 L 284.847656 313.070312 L 312.421875 285.496094 L 335.054688 304.488281 C 339.996094 308.390625 342.597656 314.113281 342.855469 320.355469 C 343.378906 326.597656 341.035156 332.582031 336.613281 337.003906 Z M 336.613281 337.003906 " fill-opacity="1" fill-rule="nonzero"/><path fill="#6982df" d="M 56.972656 309.691406 L 197.441406 309.691406 C 200.304688 309.691406 202.644531 307.347656 202.644531 304.488281 C 202.644531 303.445312 202.386719 302.40625 201.605469 301.367188 C 198.484375 301.625 195.363281 301.886719 192.242188 301.886719 C 184.4375 301.886719 176.632812 301.105469 168.828125 299.285156 L 56.972656 299.285156 C 54.109375 299.285156 51.769531 301.625 51.769531 304.488281 C 51.769531 307.347656 54.109375 309.691406 56.972656 309.691406 Z M 56.972656 309.691406 " fill-opacity="1" fill-rule="nonzero"/><path fill="#6982df" d="M 56.972656 270.671875 L 115.761719 270.671875 C 115.5 270.410156 115.242188 270.148438 114.980469 269.890625 C 111.859375 266.769531 108.996094 263.648438 106.398438 260.265625 L 56.972656 260.265625 C 54.109375 260.265625 51.769531 262.605469 51.769531 265.46875 C 51.769531 268.328125 54.109375 270.671875 56.972656 270.671875 Z M 56.972656 270.671875 " fill-opacity="1" fill-rule="nonzero"/><path fill="#6982df" d="M 56.972656 231.652344 L 90.269531 231.652344 C 88.96875 228.269531 87.925781 224.886719 86.886719 221.246094 L 56.972656 221.246094 C 54.109375 221.246094 51.769531 223.585938 51.769531 226.449219 C 51.769531 229.308594 54.109375 231.652344 56.972656 231.652344 Z M 56.972656 231.652344 " fill-opacity="1" fill-rule="nonzero"/><path fill="#6982df" d="M 56.972656 192.628906 L 82.984375 192.628906 C 82.984375 189.25 83.246094 185.605469 83.503906 182.226562 L 56.972656 182.226562 C 54.109375 182.226562 51.769531 184.566406 51.769531 187.429688 C 51.769531 190.289062 54.109375 192.628906 56.972656 192.628906 Z M 56.972656 192.628906 " fill-opacity="1" fill-rule="nonzero"/><path fill="#6982df" d="M 56.972656 153.609375 L 90.269531 153.609375 C 91.570312 149.96875 93.128906 146.585938 94.949219 143.207031 L 56.972656 143.207031 C 54.109375 143.207031 51.769531 145.546875 51.769531 148.40625 C 51.769531 151.269531 54.109375 153.609375 56.972656 153.609375 Z M 56.972656 153.609375 " fill-opacity="1" fill-rule="nonzero"/><path fill="#6982df" d="M 56.972656 111.988281 L 118.621094 111.988281 C 122.785156 108.085938 127.207031 104.707031 131.890625 101.585938 L 56.972656 101.585938 C 54.109375 101.585938 51.769531 103.925781 51.769531 106.785156 C 51.769531 109.648438 54.109375 111.988281 56.972656 111.988281 Z M 56.972656 111.988281 " fill-opacity="1" fill-rule="nonzero"/><g clip-path="url(#578eb79446)"><path fill="#6982df" d="M 223.457031 338.304688 C 223.457031 341.167969 221.113281 343.507812 218.253906 343.507812 L 36.160156 343.507812 C 33.300781 343.507812 30.957031 341.167969 30.957031 338.304688 L 30.957031 72.96875 C 30.957031 70.109375 33.300781 67.765625 36.160156 67.765625 L 218.253906 67.765625 C 221.113281 67.765625 223.457031 70.109375 223.457031 72.96875 L 223.457031 88.058594 C 227.097656 89.097656 230.480469 90.398438 233.863281 91.699219 L 233.863281 72.96875 C 233.863281 64.386719 226.839844 57.363281 218.253906 57.363281 L 36.160156 57.363281 C 27.578125 57.363281 20.554688 64.386719 20.554688 72.96875 L 20.554688 338.304688 C 20.554688 346.890625 27.578125 353.914062 36.160156 353.914062 L 218.253906 353.914062 C 226.839844 353.914062 233.863281 346.890625 233.863281 338.304688 L 233.863281 293.5625 C 230.480469 294.863281 227.097656 296.164062 223.457031 297.203125 Z M 223.457031 338.304688 " fill-opacity="1" fill-rule="nonzero"/></g><path fill="#6982df" d="M 262.214844 122.65625 C 223.714844 84.15625 161.023438 84.15625 122.523438 122.65625 C 84.023438 161.15625 84.023438 223.847656 122.523438 262.347656 C 141.515625 281.855469 167.007812 291.480469 192.242188 291.480469 C 217.472656 291.480469 242.964844 281.855469 262.214844 262.605469 C 300.714844 224.105469 300.714844 161.15625 262.214844 122.65625 Z M 129.808594 255.0625 C 95.210938 220.726562 95.210938 164.535156 129.808594 130.199219 C 146.976562 113.03125 169.609375 104.445312 192.242188 104.445312 C 214.871094 104.445312 237.503906 113.03125 254.671875 130.199219 C 289.269531 164.796875 289.269531 220.726562 254.671875 255.324219 C 220.335938 289.660156 164.144531 289.660156 129.808594 255.0625 Z M 129.808594 255.0625 " fill-opacity="1" fill-rule="nonzero"/><path fill="#6982df" d="M 234.121094 152.050781 C 231.78125 150.488281 228.398438 151.007812 226.839844 153.351562 L 179.753906 221.246094 L 156.601562 200.953125 C 154.519531 199.132812 151.140625 199.394531 149.320312 201.476562 C 147.496094 203.554688 147.757812 206.9375 149.839844 208.757812 L 177.414062 232.949219 C 178.453125 233.730469 179.492188 234.25 180.792969 234.25 C 181.054688 234.25 181.316406 234.25 181.316406 234.25 C 182.875 233.992188 184.175781 233.210938 184.957031 232.171875 L 235.421875 159.332031 C 237.242188 156.730469 236.460938 153.609375 234.121094 152.050781 Z M 234.121094 152.050781 " fill-opacity="1" fill-rule="nonzero"/></svg>