<svg xmlns="http://www.w3.org/2000/svg" xmlns:xlink="http://www.w3.org/1999/xlink" width="500" zoomAndPan="magnify" viewBox="0 0 375 374.999991" height="500" preserveAspectRatio="xMidYMid meet" version="1.0"><defs><clipPath id="dedd37a03b"><path d="M 83 5.324219 L 293 5.324219 L 293 207 L 83 207 Z M 83 5.324219 " clip-rule="nonzero"/></clipPath><clipPath id="0f0eb7e68f"><path d="M 9 218 L 366 218 L 366 369.824219 L 9 369.824219 Z M 9 218 " clip-rule="nonzero"/></clipPath></defs><path fill="#6983e0" d="M 253.707031 50.484375 L 288.230469 50.484375 C 287.753906 49.871094 287.300781 49.230469 286.75 48.675781 L 249.332031 11.28125 C 248.777344 10.722656 248.136719 10.273438 247.523438 9.789062 L 247.523438 44.300781 C 247.523438 47.714844 250.296875 50.484375 253.707031 50.484375 Z M 253.707031 50.484375 " fill-opacity="1" fill-rule="nonzero"/><g clip-path="url(#dedd37a03b)"><path fill="#6983e0" d="M 292.234375 63.011719 L 253.707031 63.011719 C 243.390625 63.011719 234.992188 54.617188 234.992188 44.308594 L 234.992188 5.804688 L 101.859375 5.804688 C 91.535156 5.804688 83.136719 14.199219 83.136719 24.507812 L 83.136719 206.351562 L 292.234375 206.351562 Z M 137.339844 61.707031 L 187.894531 61.707031 C 191.351562 61.707031 194.160156 64.515625 194.160156 67.972656 C 194.160156 71.429688 191.351562 74.234375 187.894531 74.234375 L 137.339844 74.234375 C 133.878906 74.234375 131.074219 71.429688 131.074219 67.972656 C 131.074219 64.515625 133.878906 61.707031 137.339844 61.707031 Z M 238.03125 154.742188 L 137.339844 154.742188 C 133.878906 154.742188 131.074219 151.933594 131.074219 148.476562 C 131.074219 145.019531 133.878906 142.214844 137.339844 142.214844 L 238.03125 142.214844 C 241.492188 142.214844 244.300781 145.019531 244.300781 148.476562 C 244.300781 151.933594 241.492188 154.742188 238.03125 154.742188 Z M 238.03125 114.492188 L 137.339844 114.492188 C 133.878906 114.492188 131.074219 111.683594 131.074219 108.226562 C 131.074219 104.769531 133.878906 101.964844 137.339844 101.964844 L 238.03125 101.964844 C 241.492188 101.964844 244.300781 104.769531 244.300781 108.226562 C 244.300781 111.683594 241.492188 114.492188 238.03125 114.492188 Z M 238.03125 114.492188 " fill-opacity="1" fill-rule="nonzero"/></g><g clip-path="url(#0f0eb7e68f)"><path fill="#6983e0" d="M 362.417969 228.78125 C 358.46875 222.582031 351.71875 218.878906 344.367188 218.878906 L 31 218.878906 C 23.648438 218.878906 16.898438 222.582031 12.949219 228.78125 C 9 234.984375 8.5 242.664062 11.609375 249.3125 L 61.921875 357.007812 C 65.425781 364.5 73.035156 369.34375 81.308594 369.34375 L 294.046875 369.34375 C 302.320312 369.34375 309.933594 364.5 313.4375 357.003906 L 363.753906 249.3125 C 366.867188 242.65625 366.371094 234.976562 362.417969 228.78125 Z M 362.417969 228.78125 " fill-opacity="1" fill-rule="nonzero"/></g><path fill="#6983e0" d="M 70.605469 83.628906 L 58.796875 83.628906 C 48.53125 83.628906 40.175781 91.980469 40.175781 102.238281 L 40.175781 206.359375 L 70.605469 206.359375 Z M 70.605469 83.628906 " fill-opacity="1" fill-rule="nonzero"/><path fill="#6983e0" d="M 335.199219 102.234375 C 335.199219 91.972656 326.84375 83.625 316.578125 83.625 L 304.769531 83.625 L 304.769531 206.347656 L 335.199219 206.347656 Z M 335.199219 102.234375 " fill-opacity="1" fill-rule="nonzero"/></svg>