<svg xmlns="http://www.w3.org/2000/svg" xmlns:xlink="http://www.w3.org/1999/xlink" width="500" zoomAndPan="magnify" viewBox="0 0 375 374.999991" height="500" preserveAspectRatio="xMidYMid meet" version="1.0"><defs><clipPath id="fae3648009"><path d="M 47.472656 12.464844 L 327.222656 12.464844 L 327.222656 362.714844 L 47.472656 362.714844 Z M 47.472656 12.464844 " clip-rule="nonzero"/></clipPath></defs><g clip-path="url(#fae3648009)"><path fill="#5e77d6" d="M 59.132812 35.816406 C 59.132812 29.386719 64.367188 24.140625 70.785156 24.140625 L 274.769531 24.140625 L 274.769531 41.652344 C 274.769531 54.535156 285.21875 65.003906 298.078125 65.003906 L 315.5625 65.003906 L 315.5625 339.367188 C 315.5625 345.796875 310.328125 351.039062 303.90625 351.039062 L 70.785156 351.039062 C 64.367188 351.039062 59.132812 345.796875 59.132812 339.367188 Z M 307.324219 53.328125 L 298.078125 53.328125 C 291.660156 53.328125 286.425781 48.082031 286.425781 41.652344 L 286.425781 32.394531 Z M 70.785156 362.714844 L 303.90625 362.714844 C 316.769531 362.714844 327.21875 352.25 327.21875 339.367188 L 327.21875 64 C 327.21875 61.539062 326.695312 59.1875 325.742188 57 C 325.671875 56.863281 325.605469 56.769531 325.558594 56.65625 C 324.691406 54.808594 323.578125 53.101562 322.097656 51.617188 L 288.132812 17.597656 C 286.652344 16.113281 284.921875 14.972656 283.078125 14.109375 C 282.964844 14.0625 282.894531 13.992188 282.78125 13.96875 C 280.597656 12.988281 278.226562 12.464844 275.769531 12.464844 L 70.785156 12.464844 C 57.925781 12.464844 47.476562 22.933594 47.476562 35.816406 L 47.476562 339.367188 C 47.476562 352.25 57.925781 362.714844 70.785156 362.714844 " fill-opacity="1" fill-rule="nonzero"/></g><path fill="#5e77d6" d="M 94.097656 94.191406 C 94.097656 90.976562 96.71875 88.351562 99.925781 88.351562 L 134.894531 88.351562 C 137.398438 88.351562 139.492188 89.949219 140.3125 92.183594 L 123.238281 109.285156 L 115.703125 101.738281 C 113.425781 99.457031 109.738281 99.457031 107.460938 101.738281 C 105.1875 104.019531 105.1875 107.710938 107.460938 109.992188 L 119.117188 121.667969 C 120.257812 122.808594 121.738281 123.378906 123.238281 123.378906 C 124.742188 123.378906 126.222656 122.808594 127.359375 121.667969 L 140.722656 108.28125 L 140.722656 129.214844 C 140.722656 132.429688 138.105469 135.054688 134.894531 135.054688 L 99.925781 135.054688 C 96.71875 135.054688 94.097656 132.429688 94.097656 129.214844 Z M 99.925781 146.726562 L 134.894531 146.726562 C 144.546875 146.726562 152.378906 138.882812 152.378906 129.214844 L 152.378906 96.609375 L 168.15625 80.804688 C 170.433594 78.523438 170.433594 74.832031 168.15625 72.550781 C 165.878906 70.269531 162.191406 70.269531 159.914062 72.550781 L 148.804688 83.679688 C 145.59375 79.460938 140.585938 76.679688 134.894531 76.679688 L 99.925781 76.679688 C 90.273438 76.679688 82.441406 84.523438 82.441406 94.191406 L 82.441406 129.214844 C 82.441406 138.882812 90.273438 146.726562 99.925781 146.726562 " fill-opacity="1" fill-rule="nonzero"/><path fill="#5e77d6" d="M 94.097656 175.914062 C 94.097656 172.699219 96.71875 170.078125 99.925781 170.078125 L 134.894531 170.078125 C 138.105469 170.078125 140.722656 172.699219 140.722656 175.914062 L 140.722656 210.941406 C 140.722656 214.15625 138.105469 216.777344 134.894531 216.777344 L 99.925781 216.777344 C 96.71875 216.777344 94.097656 214.15625 94.097656 210.941406 Z M 99.925781 228.453125 L 134.894531 228.453125 C 144.546875 228.453125 152.378906 220.609375 152.378906 210.941406 L 152.378906 175.914062 C 152.378906 166.246094 144.546875 158.402344 134.894531 158.402344 L 99.925781 158.402344 C 90.273438 158.402344 82.441406 166.246094 82.441406 175.914062 L 82.441406 210.941406 C 82.441406 220.609375 90.273438 228.453125 99.925781 228.453125 " fill-opacity="1" fill-rule="nonzero"/><path fill="#5e77d6" d="M 94.097656 257.640625 C 94.097656 254.425781 96.71875 251.804688 99.925781 251.804688 L 134.894531 251.804688 C 138.105469 251.804688 140.722656 254.425781 140.722656 257.640625 L 140.722656 292.664062 C 140.722656 295.878906 138.105469 298.503906 134.894531 298.503906 L 99.925781 298.503906 C 96.71875 298.503906 94.097656 295.878906 94.097656 292.664062 Z M 99.925781 310.179688 L 134.894531 310.179688 C 144.546875 310.179688 152.378906 302.335938 152.378906 292.664062 L 152.378906 257.640625 C 152.378906 247.972656 144.546875 240.128906 134.894531 240.128906 L 99.925781 240.128906 C 90.273438 240.128906 82.441406 247.972656 82.441406 257.640625 L 82.441406 292.664062 C 82.441406 302.335938 90.273438 310.179688 99.925781 310.179688 " fill-opacity="1" fill-rule="nonzero"/><path fill="#5e77d6" d="M 187.347656 100.027344 L 286.425781 100.027344 C 289.632812 100.027344 292.253906 97.40625 292.253906 94.191406 C 292.253906 90.976562 289.632812 88.351562 286.425781 88.351562 L 187.347656 88.351562 C 184.136719 88.351562 181.519531 90.976562 181.519531 94.191406 C 181.519531 97.40625 184.136719 100.027344 187.347656 100.027344 " fill-opacity="1" fill-rule="nonzero"/><path fill="#5e77d6" d="M 187.347656 129.214844 L 245.628906 129.214844 C 248.835938 129.214844 251.457031 126.59375 251.457031 123.378906 C 251.457031 120.164062 248.835938 117.539062 245.628906 117.539062 L 187.347656 117.539062 C 184.136719 117.539062 181.519531 120.164062 181.519531 123.378906 C 181.519531 126.59375 184.136719 129.214844 187.347656 129.214844 " fill-opacity="1" fill-rule="nonzero"/><path fill="#5e77d6" d="M 187.347656 181.753906 L 286.425781 181.753906 C 289.632812 181.753906 292.253906 179.128906 292.253906 175.914062 C 292.253906 172.699219 289.632812 170.078125 286.425781 170.078125 L 187.347656 170.078125 C 184.136719 170.078125 181.519531 172.699219 181.519531 175.914062 C 181.519531 179.128906 184.136719 181.753906 187.347656 181.753906 " fill-opacity="1" fill-rule="nonzero"/><path fill="#5e77d6" d="M 187.347656 210.941406 L 245.628906 210.941406 C 248.835938 210.941406 251.457031 208.316406 251.457031 205.101562 C 251.457031 201.886719 248.835938 199.265625 245.628906 199.265625 L 187.347656 199.265625 C 184.136719 199.265625 181.519531 201.886719 181.519531 205.101562 C 181.519531 208.316406 184.136719 210.941406 187.347656 210.941406 " fill-opacity="1" fill-rule="nonzero"/><path fill="#5e77d6" d="M 187.347656 263.476562 L 286.425781 263.476562 C 289.632812 263.476562 292.253906 260.855469 292.253906 257.640625 C 292.253906 254.425781 289.632812 251.804688 286.425781 251.804688 L 187.347656 251.804688 C 184.136719 251.804688 181.519531 254.425781 181.519531 257.640625 C 181.519531 260.855469 184.136719 263.476562 187.347656 263.476562 " fill-opacity="1" fill-rule="nonzero"/><path fill="#5e77d6" d="M 187.347656 292.664062 L 245.628906 292.664062 C 248.835938 292.664062 251.457031 290.042969 251.457031 286.828125 C 251.457031 283.613281 248.835938 280.992188 245.628906 280.992188 L 187.347656 280.992188 C 184.136719 280.992188 181.519531 283.613281 181.519531 286.828125 C 181.519531 290.042969 184.136719 292.664062 187.347656 292.664062 " fill-opacity="1" fill-rule="nonzero"/></svg>