<svg xmlns="http://www.w3.org/2000/svg" xmlns:xlink="http://www.w3.org/1999/xlink" width="500" zoomAndPan="magnify" viewBox="0 0 375 374.999991" height="500" preserveAspectRatio="xMidYMid meet" version="1.0"><defs><clipPath id="1aec886a1a"><path d="M 22 20.734375 L 354 20.734375 L 354 373 L 22 373 Z M 22 20.734375 " clip-rule="nonzero"/></clipPath></defs><path fill="#6982df" d="M 221.277344 119.679688 L 155.195312 119.679688 C 151.890625 119.679688 149.6875 121.878906 149.6875 125.175781 L 149.6875 191.140625 C 149.6875 194.4375 151.890625 196.636719 155.195312 196.636719 L 221.277344 196.636719 C 224.582031 196.636719 226.785156 194.4375 226.785156 191.140625 L 226.785156 125.175781 C 226.785156 121.878906 224.582031 119.679688 221.277344 119.679688 Z M 215.769531 185.644531 L 160.699219 185.644531 L 160.699219 130.671875 L 215.769531 130.671875 Z M 215.769531 185.644531 " fill-opacity="1" fill-rule="nonzero"/><path fill="#6982df" d="M 127.660156 218.625 L 248.8125 218.625 L 248.8125 97.691406 L 127.660156 97.691406 Z M 138.671875 108.6875 L 237.800781 108.6875 L 237.800781 207.628906 L 138.671875 207.628906 Z M 138.671875 108.6875 " fill-opacity="1" fill-rule="nonzero"/><path fill="#6982df" d="M 138.671875 75.703125 L 149.6875 75.703125 L 149.6875 86.699219 L 138.671875 86.699219 Z M 138.671875 75.703125 " fill-opacity="1" fill-rule="nonzero"/><path fill="#6982df" d="M 160.699219 75.703125 L 171.714844 75.703125 L 171.714844 86.699219 L 160.699219 86.699219 Z M 160.699219 75.703125 " fill-opacity="1" fill-rule="nonzero"/><path fill="#6982df" d="M 204.757812 75.703125 L 215.769531 75.703125 L 215.769531 86.699219 L 204.757812 86.699219 Z M 204.757812 75.703125 " fill-opacity="1" fill-rule="nonzero"/><path fill="#6982df" d="M 226.785156 75.703125 L 237.800781 75.703125 L 237.800781 86.699219 L 226.785156 86.699219 Z M 226.785156 75.703125 " fill-opacity="1" fill-rule="nonzero"/><path fill="#6982df" d="M 138.671875 229.617188 L 149.6875 229.617188 L 149.6875 240.613281 L 138.671875 240.613281 Z M 138.671875 229.617188 " fill-opacity="1" fill-rule="nonzero"/><path fill="#6982df" d="M 160.699219 229.617188 L 171.714844 229.617188 L 171.714844 240.613281 L 160.699219 240.613281 Z M 160.699219 229.617188 " fill-opacity="1" fill-rule="nonzero"/><path fill="#6982df" d="M 204.757812 229.617188 L 215.769531 229.617188 L 215.769531 240.613281 L 204.757812 240.613281 Z M 204.757812 229.617188 " fill-opacity="1" fill-rule="nonzero"/><path fill="#6982df" d="M 226.785156 229.617188 L 237.800781 229.617188 L 237.800781 240.613281 L 226.785156 240.613281 Z M 226.785156 229.617188 " fill-opacity="1" fill-rule="nonzero"/><path fill="#6982df" d="M 105.632812 108.6875 L 116.644531 108.6875 L 116.644531 119.679688 L 105.632812 119.679688 Z M 105.632812 108.6875 " fill-opacity="1" fill-rule="nonzero"/><path fill="#6982df" d="M 105.632812 130.671875 L 116.644531 130.671875 L 116.644531 141.667969 L 105.632812 141.667969 Z M 105.632812 130.671875 " fill-opacity="1" fill-rule="nonzero"/><path fill="#6982df" d="M 105.632812 152.660156 L 116.644531 152.660156 L 116.644531 163.65625 L 105.632812 163.65625 Z M 105.632812 152.660156 " fill-opacity="1" fill-rule="nonzero"/><path fill="#6982df" d="M 105.632812 174.648438 L 116.644531 174.648438 L 116.644531 185.644531 L 105.632812 185.644531 Z M 105.632812 174.648438 " fill-opacity="1" fill-rule="nonzero"/><path fill="#6982df" d="M 105.632812 196.636719 L 116.644531 196.636719 L 116.644531 207.628906 L 105.632812 207.628906 Z M 105.632812 196.636719 " fill-opacity="1" fill-rule="nonzero"/><path fill="#6982df" d="M 259.828125 108.6875 L 270.839844 108.6875 L 270.839844 119.679688 L 259.828125 119.679688 Z M 259.828125 108.6875 " fill-opacity="1" fill-rule="nonzero"/><path fill="#6982df" d="M 259.828125 130.671875 L 270.839844 130.671875 L 270.839844 141.667969 L 259.828125 141.667969 Z M 259.828125 130.671875 " fill-opacity="1" fill-rule="nonzero"/><path fill="#6982df" d="M 259.828125 152.660156 L 270.839844 152.660156 L 270.839844 163.65625 L 259.828125 163.65625 Z M 259.828125 152.660156 " fill-opacity="1" fill-rule="nonzero"/><path fill="#6982df" d="M 259.828125 174.648438 L 270.839844 174.648438 L 270.839844 185.644531 L 259.828125 185.644531 Z M 259.828125 174.648438 " fill-opacity="1" fill-rule="nonzero"/><path fill="#6982df" d="M 259.828125 196.636719 L 270.839844 196.636719 L 270.839844 207.628906 L 259.828125 207.628906 Z M 259.828125 196.636719 " fill-opacity="1" fill-rule="nonzero"/><g clip-path="url(#1aec886a1a)"><path fill="#6982df" d="M 331.417969 279.089844 C 328.664062 279.089844 326.460938 279.640625 324.257812 280.1875 L 287.363281 243.910156 L 287.363281 239.511719 C 308.289062 234.015625 323.707031 213.128906 323.707031 186.742188 C 323.707031 175.199219 320.402344 164.203125 313.796875 154.308594 C 320.402344 144.964844 323.707031 133.421875 323.707031 121.878906 C 323.707031 94.394531 306.085938 72.957031 281.304688 70.207031 C 279.101562 42.722656 258.175781 20.734375 232.84375 20.734375 C 213.566406 21.285156 195.945312 32.828125 188.234375 50.96875 C 181.078125 33.378906 164.003906 21.285156 144.730469 20.734375 C 118.847656 20.734375 96.820312 43.273438 94.617188 70.757812 C 70.9375 73.507812 53.863281 94.394531 53.863281 122.429688 C 53.863281 133.972656 57.167969 145.515625 63.777344 154.859375 C 57.167969 164.203125 53.863281 175.75 53.863281 187.292969 C 53.863281 213.675781 68.183594 234.015625 88.558594 239.511719 L 88.558594 244.460938 L 51.664062 281.289062 C 40.097656 277.441406 27.429688 283.488281 23.578125 294.480469 C 19.722656 306.023438 25.78125 318.667969 36.792969 322.515625 C 47.808594 326.363281 61.023438 320.316406 64.878906 309.324219 C 66.53125 306.023438 67.082031 303.824219 67.082031 301.078125 C 67.082031 295.582031 64.878906 290.632812 61.574219 286.785156 L 96.820312 251.605469 C 100.675781 263.699219 107.832031 273.59375 117.746094 281.289062 L 111.136719 287.886719 L 111.136719 318.667969 C 99.574219 321.964844 92.414062 333.507812 95.167969 345.601562 C 98.472656 357.144531 110.035156 364.292969 122.152344 361.542969 C 134.265625 358.792969 140.875 346.703125 138.121094 334.609375 C 135.917969 326.914062 129.863281 320.867188 122.152344 318.667969 L 122.152344 292.832031 L 128.210938 286.785156 C 133.714844 288.984375 139.222656 290.082031 145.28125 290.082031 C 160.148438 290.082031 174.46875 282.386719 182.730469 269.746094 L 182.730469 329.113281 C 171.164062 332.410156 164.003906 343.953125 166.757812 356.046875 C 170.0625 367.589844 181.628906 374.734375 193.742188 371.988281 C 205.308594 368.6875 212.464844 357.144531 209.714844 345.050781 C 207.511719 337.355469 201.453125 331.308594 193.742188 329.113281 L 193.742188 268.644531 C 202.554688 281.839844 217.421875 289.535156 232.84375 290.082031 C 237.800781 290.082031 243.304688 288.984375 248.261719 287.335938 L 259.828125 298.878906 L 259.828125 319.21875 C 248.261719 323.613281 242.753906 336.808594 247.160156 347.800781 C 251.566406 358.792969 264.785156 364.839844 275.796875 360.445312 C 286.8125 356.046875 292.867188 342.855469 288.464844 331.859375 C 285.710938 324.164062 278.550781 319.21875 270.839844 318.117188 L 270.839844 294.480469 L 258.726562 282.386719 C 269.1875 275.242188 276.347656 264.25 279.652344 252.15625 L 314.898438 287.335938 C 307.1875 296.679688 308.289062 310.421875 317.101562 318.117188 C 325.910156 325.8125 340.230469 324.714844 347.9375 315.917969 C 355.648438 307.125 354.546875 292.832031 345.734375 285.136719 C 341.882812 280.738281 336.925781 279.089844 331.417969 279.089844 Z M 45.054688 312.070312 C 38.996094 312.070312 34.039062 307.125 34.039062 301.078125 C 34.039062 295.03125 38.996094 290.082031 45.054688 290.082031 C 51.113281 290.082031 56.066406 295.03125 56.066406 301.078125 C 56.066406 307.125 51.113281 312.070312 45.054688 312.070312 Z M 127.660156 339.554688 C 127.660156 345.601562 122.703125 350.550781 116.644531 350.550781 C 110.585938 350.550781 105.632812 345.601562 105.632812 339.554688 C 105.632812 333.507812 110.585938 328.5625 116.644531 328.5625 C 122.703125 328.5625 127.660156 333.507812 127.660156 339.554688 Z M 279.101562 339.554688 C 279.101562 345.601562 274.144531 350.550781 268.085938 350.550781 C 262.03125 350.550781 257.074219 345.601562 257.074219 339.554688 C 257.074219 333.507812 262.03125 328.5625 268.085938 328.5625 C 274.144531 328.5625 279.101562 333.507812 279.101562 339.554688 Z M 199.25 350.550781 C 199.25 356.597656 194.292969 361.542969 188.234375 361.542969 C 182.179688 361.542969 177.222656 356.597656 177.222656 350.550781 C 177.222656 344.503906 182.179688 339.554688 188.234375 339.554688 C 194.292969 339.554688 199.25 344.503906 199.25 350.550781 Z M 270.839844 235.113281 C 270.839844 250.507812 263.683594 265.347656 250.464844 274.144531 L 237.800781 261.5 L 237.800781 246.109375 L 226.785156 246.109375 L 226.785156 265.898438 L 239.449219 278.539062 C 237.25 279.089844 235.046875 279.089844 232.84375 279.089844 C 211.917969 279.089844 193.742188 258.75 193.742188 235.113281 L 193.742188 229.617188 L 182.730469 229.617188 L 182.730469 235.113281 C 182.730469 258.75 165.65625 279.089844 145.28125 279.089844 C 142.527344 279.089844 139.773438 278.539062 137.019531 277.992188 L 150.238281 264.796875 L 150.238281 246.109375 L 139.222656 246.109375 L 139.222656 260.398438 L 126.558594 273.042969 C 113.339844 264.796875 105.632812 250.507812 105.632812 235.113281 L 105.632812 229.617188 L 100.125 229.617188 C 80.296875 229.617188 65.429688 210.929688 65.429688 186.742188 C 65.429688 180.695312 66.53125 174.648438 68.734375 169.152344 C 73.140625 179.046875 83.050781 185.644531 94.066406 185.644531 L 94.066406 174.648438 C 84.152344 174.097656 76.445312 165.304688 76.996094 155.410156 C 76.445312 145.515625 84.152344 136.71875 94.066406 136.171875 L 94.066406 125.175781 C 83.601562 125.175781 73.691406 131.222656 69.285156 141.117188 C 66.53125 135.070312 65.429688 129.023438 65.429688 122.429688 C 65.429688 98.242188 79.746094 81.75 100.125 81.75 L 105.632812 81.75 L 105.632812 76.253906 C 105.632812 52.617188 123.804688 32.28125 145.28125 32.28125 C 166.207031 32.28125 182.730469 52.066406 182.730469 76.253906 L 182.730469 87.25 L 193.742188 87.25 L 193.742188 76.253906 C 193.742188 52.617188 211.917969 32.28125 232.84375 32.28125 C 253.769531 32.28125 270.839844 52.066406 270.839844 76.253906 L 270.839844 81.75 L 276.347656 81.75 C 297.273438 81.75 312.695312 99.339844 312.695312 122.429688 C 312.695312 129.023438 311.59375 135.070312 308.839844 141.117188 C 304.433594 131.773438 294.519531 125.726562 284.058594 125.175781 L 284.058594 136.171875 C 293.96875 136.71875 301.679688 145.515625 301.128906 155.410156 C 301.679688 165.304688 293.96875 174.097656 284.058594 174.648438 L 284.058594 185.644531 C 295.070312 185.644531 304.984375 179.046875 309.390625 169.152344 C 311.59375 174.648438 312.695312 180.695312 312.695312 186.742188 C 312.695312 210.929688 296.722656 229.617188 276.347656 229.617188 L 270.839844 229.617188 Z M 331.417969 312.070312 C 325.359375 312.070312 320.402344 307.125 320.402344 301.078125 C 320.402344 295.03125 325.359375 290.082031 331.417969 290.082031 C 337.476562 290.082031 342.433594 295.03125 342.433594 301.078125 C 342.433594 307.125 337.476562 312.070312 331.417969 312.070312 Z M 331.417969 312.070312 " fill-opacity="1" fill-rule="nonzero"/></g></svg>